<svg xmlns="http://www.w3.org/2000/svg" viewBox="0 0 199.18 28.8"><defs><style>.cls-1{opacity:0.5;}.cls-2{fill:#fff;}</style></defs><g id="_图层_2" data-name="&lt;图层&gt;"><polygon class="cls-2" points="69.3 0.05 69.3 28.77 61.88 28.77 61.88 7.46 45.6 7.46 45.6 13.57 60.85 13.57 60.85 20.99 45.6 20.99 45.6 28.77 38.18 28.77 38.18 0.05 39.55 0.05 39.55 0.04 68.27 0.04 68.27 0.05 69.3 0.05"/><polygon class="cls-2" points="107.71 0 107.71 7.42 95.86 7.42 95.86 28.8 88.44 28.8 88.44 7.42 76.6 7.42 76.6 0 107.71 0"/><polygon class="cls-2" points="146.25 0.04 146.25 18.47 133.53 18.47 127.82 14.73 127.82 11.53 138.83 11.53 138.83 7.46 122.55 7.46 122.55 13.27 146.25 27.69 146.25 28.76 132.73 28.76 122.55 22.72 122.55 28.76 115.13 28.76 115.13 0.04 146.25 0.04"/><rect class="cls-2" x="153.52" y="0.04" width="7.42" height="28.72"/><polygon class="cls-2" points="168.33 0.01 176.96 0.01 176.96 11.45 187.76 17.07 187.76 18.03 168.33 13.48 168.33 0.01"/><polygon class="cls-2" points="176.9 28.8 168.27 28.8 168.27 18.75 176.9 16.35 176.9 28.8"/><polygon class="cls-2" points="199.18 10.13 190.55 12.52 190.55 0.07 199.18 0.07 199.18 10.13"/><polygon class="cls-2" points="199.18 28.8 190.55 28.8 190.55 17.35 179.74 11.73 179.74 10.61 199.18 15.32 199.18 28.8"/><polygon class="cls-2" points="30.9 28.76 30.9 0.04 21.95 0.04 15.41 12.01 8.87 0.04 0 0.04 0 28.76 7.5 28.76 7.5 14.91 7.35 14.64 7.5 14.38 7.5 14.91 15.41 26.85 23.31 14.91 23.31 14.38 23.47 14.64 23.31 14.91 23.31 28.76 30.9 28.76"/></g></svg>